<svg width="22" height="23" viewBox="0 0 22 23" fill="none" xmlns="http://www.w3.org/2000/svg">
<g id="Order Icon">
<path id="Union" fill-rule="evenodd" clip-rule="evenodd" d="M3.62134 5.87445C3.62134 3.87454 5.24258 2.2533 7.24249 2.2533H9.05307C11.053 2.2533 12.6742 3.87454 12.6742 5.87445C12.6742 7.87436 14.2955 9.49561 16.2954 9.49561C17.2953 9.49561 18.106 10.3062 18.106 11.3062V16.7379C18.106 18.7378 16.4847 20.3591 14.4848 20.3591H7.24249C5.24258 20.3591 3.62134 18.7378 3.62134 16.7379V5.87445ZM7.24249 10.4009C6.74252 10.4009 6.3372 10.8062 6.3372 11.3062C6.3372 11.8062 6.74252 12.2115 7.24249 12.2115H9.05307C9.55305 12.2115 9.95836 11.8062 9.95836 11.3062C9.95836 10.8062 9.55305 10.4009 9.05307 10.4009H7.24249ZM7.24249 14.0221C6.74252 14.0221 6.3372 14.4274 6.3372 14.9273C6.3372 15.4273 6.74252 15.8326 7.24249 15.8326H10.8637C11.3636 15.8326 11.7689 15.4273 11.7689 14.9273C11.7689 14.4274 11.3636 14.0221 10.8637 14.0221H7.24249ZM15.102 4.24384L14.9835 6.0219C14.9471 6.56841 15.4005 7.02184 15.947 6.98541L17.7251 6.86687C18.5011 6.81513 18.855 5.87343 18.305 5.32345L16.6454 3.66392C16.0955 3.11394 15.1538 3.46777 15.102 4.24384Z" fill="white"/>
</g>
</svg>
