<svg width="19" height="19" viewBox="0 0 19 19" fill="none" xmlns="http://www.w3.org/2000/svg">
<g id="Graduation Cap">
<path id="icon" fill-rule="evenodd" clip-rule="evenodd" d="M9.76977 0.988426C9.59766 0.913851 9.40234 0.913851 9.23023 0.988426L0.408797 4.81053C0.160621 4.91805 0 5.16269 0 5.43317C0 5.70363 0.160621 5.94827 0.408797 6.05581L1.62018 6.58067V14.1685C1.03072 14.43 0.619574 15.0204 0.619574 15.7068C0.619574 16.6358 1.37266 17.3889 2.30163 17.3889C3.23061 17.3889 3.98369 16.6358 3.98369 15.7068C3.98369 15.0197 3.57176 14.4288 2.98138 14.1677V7.17045L9.23023 9.87791C9.40234 9.95248 9.59766 9.95248 9.76977 9.87791L18.5912 6.05581C18.8393 5.94827 19 5.70363 19 5.43317C19 5.16269 18.8393 4.91805 18.5912 4.81053L9.76977 0.988426ZM4.01129 12.6939L4.00449 9.46283L8.55516 11.4345C9.15758 11.6955 9.84117 11.6955 10.4436 11.4345L14.9951 9.46247L14.9958 12.6923C14.9958 12.8406 14.9472 12.9849 14.8575 13.103L14.3172 12.6925C14.8575 13.103 14.8577 13.1027 14.8575 13.103L14.8565 13.1042L14.8554 13.1056L14.8528 13.109L14.8459 13.1179L14.8252 13.1437C14.8083 13.1643 14.7854 13.1916 14.7561 13.2247C14.6976 13.2909 14.6138 13.3803 14.5041 13.4849C14.2845 13.6941 13.9592 13.9655 13.5208 14.2345C12.6397 14.7752 11.3138 15.2985 9.49963 15.2985C7.68539 15.2985 6.36117 14.7752 5.48169 14.2341C5.04413 13.965 4.71975 13.6934 4.50081 13.484C4.39129 13.3793 4.30786 13.2898 4.24957 13.2235C4.2204 13.1904 4.19748 13.163 4.18068 13.1424L4.16005 13.1166L4.15314 13.1077L4.15052 13.1043L4.14944 13.1028C4.14921 13.1025 4.14847 13.1016 4.68981 12.6925L4.14847 13.1016C4.05976 12.9841 4.01161 12.8411 4.01129 12.6939Z" fill="#707070"/>
</g>
</svg>
