<svg width="23" height="23" viewBox="0 0 23 23" fill="none" xmlns="http://www.w3.org/2000/svg">
<g id="Sales Icon">
<g id="New Costumers Icon">
<g id="Group 914">
<path id="Union" fill-rule="evenodd" clip-rule="evenodd" d="M13.3259 8.24225C13.3259 10.2422 11.7046 11.8634 9.7047 11.8634C7.70479 11.8634 6.08354 10.2422 6.08354 8.24225C6.08354 6.24234 7.70479 4.62109 9.7047 4.62109C11.7046 4.62109 13.3259 6.24234 13.3259 8.24225ZM9.7047 12.7687C6.20486 12.7687 3.36768 14.7953 3.36768 17.2951C3.36768 18.2951 4.1783 19.1057 5.17825 19.1057H14.2311C15.2311 19.1057 16.0417 18.2951 16.0417 17.2951C16.0417 14.7953 13.2045 12.7687 9.7047 12.7687ZM16.9466 6.43168C17.4466 6.43168 17.8519 6.83699 17.8519 7.33697C17.8519 7.83694 18.2572 8.24226 18.7572 8.24226C19.2572 8.24226 19.6625 8.64757 19.6625 9.14755C19.6625 9.64752 19.2572 10.0528 18.7572 10.0528C18.2572 10.0528 17.8519 10.4581 17.8519 10.9581C17.8519 11.4581 17.4466 11.8634 16.9466 11.8634C16.4466 11.8634 16.0413 11.4581 16.0413 10.9581C16.0413 10.4581 15.636 10.0528 15.136 10.0528C14.6361 10.0528 14.2307 9.64752 14.2307 9.14755C14.2307 8.64757 14.6361 8.24226 15.136 8.24226C15.636 8.24226 16.0413 7.83694 16.0413 7.33697C16.0413 6.83699 16.4466 6.43168 16.9466 6.43168Z" fill="white"/>
</g>
</g>
</g>
</svg>
